<?xml version="1.0" encoding="utf-8"?>
<!-- Generator: Adobe Illustrator 16.0.0, SVG Export Plug-In . SVG Version: 6.00 Build 0)  -->
<!DOCTYPE svg PUBLIC "-//W3C//DTD SVG 1.1//EN" "http://www.w3.org/Graphics/SVG/1.1/DTD/svg11.dtd">
<svg version="1.1" id="Layer_1" xmlns="http://www.w3.org/2000/svg" xmlns:xlink="http://www.w3.org/1999/xlink" x="0px" y="0px"
	 width="34.621px" height="50px" viewBox="0 0 34.621 50" enable-background="new 0 0 34.621 50" xml:space="preserve">
<g>
	<g>
		<path fill="#F50057" d="M7.255,20.736h6.2c0.37,0,0.67-0.3,0.67-0.671v-6.2c0-0.369-0.3-0.669-0.67-0.669h-6.2
			c-0.37,0-0.67,0.3-0.67,0.669v6.2C6.585,20.436,6.885,20.736,7.255,20.736z M7.926,14.535h4.859v4.86H7.926V14.535z"/>
		<path fill="#F50057" d="M6.585,29.851c0,0.37,0.3,0.671,0.67,0.671h6.2c0.37,0,0.67-0.301,0.67-0.671v-6.2
			c0-0.37-0.3-0.67-0.67-0.67h-6.2c-0.37,0-0.67,0.3-0.67,0.67V29.851z M7.926,24.32h4.859v4.86H7.926V24.32z"/>
		<path fill="#F50057" d="M6.585,39.635c0,0.371,0.3,0.671,0.67,0.671h6.2c0.37,0,0.67-0.3,0.67-0.671v-6.199
			c0-0.371-0.3-0.671-0.67-0.671h-6.2c-0.37,0-0.67,0.3-0.67,0.671V39.635z M7.926,34.105h4.859v4.859H7.926V34.105z"/>
		<path fill="#F50057" d="M26.109,16.295h-7.061c-0.369,0-0.669,0.3-0.669,0.67s0.3,0.67,0.669,0.67h7.061
			c0.371,0,0.67-0.3,0.67-0.67S26.48,16.295,26.109,16.295z"/>
		<path fill="#F50057" d="M16.459,17.636h0.805c0.369,0,0.67-0.3,0.67-0.67s-0.301-0.67-0.67-0.67h-0.805
			c-0.371,0-0.67,0.3-0.67,0.67S16.088,17.636,16.459,17.636z"/>
		<path fill="#F50057" d="M26.109,26.08h-3.217c-0.37,0-0.67,0.301-0.67,0.67c0,0.371,0.3,0.67,0.67,0.67h3.217
			c0.371,0,0.67-0.299,0.67-0.67C26.779,26.381,26.48,26.08,26.109,26.08z"/>
		<path fill="#F50057" d="M16.459,27.42h4.468c0.37,0,0.669-0.299,0.669-0.67c0-0.369-0.299-0.67-0.669-0.67h-4.468
			c-0.371,0-0.67,0.301-0.67,0.67C15.789,27.121,16.088,27.42,16.459,27.42z"/>
		<path fill="#F50057" d="M16.459,37.205h9.65c0.371,0,0.67-0.3,0.67-0.67s-0.299-0.67-0.67-0.67h-9.65c-0.371,0-0.67,0.3-0.67,0.67
			S16.088,37.205,16.459,37.205z"/>
		<path fill="#F50057" d="M11.822,14.904c-0.337-0.15-0.733,0-0.885,0.338l-0.861,1.925l-0.561-0.735
			c-0.224-0.295-0.645-0.352-0.939-0.127c-0.293,0.224-0.351,0.645-0.126,0.938l1.243,1.634c0.129,0.167,0.326,0.264,0.533,0.264
			c0.026,0,0.053-0.001,0.078-0.004c0.234-0.028,0.438-0.177,0.534-0.393l1.322-2.955C12.313,15.451,12.161,15.056,11.822,14.904z"
			/>
		<g>
			<path fill="#F50057" d="M0.67,10.388c0.369,0,0.67-0.3,0.67-0.67V6.656c0-0.699,0.568-1.268,1.268-1.268h7.354v2.69H4.374
				c-0.37,0-0.671,0.3-0.671,0.67v34.61c0,0.37,0.301,0.67,0.671,0.67h25.958c0.369,0,0.669-0.3,0.669-0.67V8.749
				c0-0.37-0.3-0.67-0.669-0.67h-5.538v-2.69h7.22c0.699,0,1.267,0.569,1.267,1.268v36.242c0,0.37,0.3,0.67,0.67,0.67
				s0.67-0.3,0.67-0.67V6.656c0-1.438-1.168-2.608-2.606-2.608h-7.22V2.993c0-0.37-0.301-0.67-0.67-0.67h-2.646
				C20.621,0.899,19.055,0,17.377,0s-3.243,0.899-4.101,2.323h-2.646c-0.37,0-0.67,0.3-0.67,0.67v1.055H2.607
				C1.17,4.048,0,5.218,0,6.656v3.062C0,10.088,0.299,10.388,0.67,10.388z M10.631,10.901h7.641c0.369,0,0.67-0.3,0.67-0.67
				c0-0.37-0.301-0.67-0.67-0.67h-6.971V3.663h2.374c0.257,0,0.491-0.146,0.604-0.378c0.571-1.182,1.788-1.945,3.099-1.945
				c1.313,0,2.528,0.764,3.1,1.945c0.111,0.231,0.346,0.378,0.604,0.378h2.373v5.898h-2.635c-0.371,0-0.67,0.3-0.67,0.67
				c0,0.371,0.299,0.67,0.67,0.67h3.306c0.369,0,0.67-0.3,0.67-0.67V9.419h4.867v33.269H5.044V9.419h4.917v0.812
				C9.961,10.602,10.261,10.901,10.631,10.901z"/>
			<path fill="#F50057" d="M0.67,11.252c-0.369,0-0.67,0.3-0.67,0.67v0.913c0,0.371,0.301,0.671,0.67,0.671
				c0.371,0,0.671-0.3,0.671-0.671v-0.913C1.341,11.553,1.041,11.252,0.67,11.252z"/>
			<path fill="#F50057" d="M33.95,44.602c-0.37,0-0.669,0.3-0.669,0.67v2.121c0,0.698-0.569,1.267-1.268,1.267H2.607
				c-0.698,0-1.267-0.568-1.267-1.267V15.042c0-0.37-0.3-0.67-0.671-0.67c-0.369,0-0.67,0.3-0.67,0.67v32.351
				C0,48.83,1.17,50,2.607,50h29.406c1.438,0,2.607-1.17,2.607-2.607v-2.121C34.621,44.901,34.32,44.602,33.95,44.602z"/>
			<circle fill="#F50057" cx="17.353" cy="4.074" r="1.307"/>
		</g>
	</g>
</g>
</svg>
