<?xml version="1.0" encoding="utf-8"?>
<!-- Generator: Adobe Illustrator 16.0.0, SVG Export Plug-In . SVG Version: 6.00 Build 0)  -->
<!DOCTYPE svg PUBLIC "-//W3C//DTD SVG 1.1//EN" "http://www.w3.org/Graphics/SVG/1.1/DTD/svg11.dtd">
<svg version="1.1" id="Layer_1" xmlns="http://www.w3.org/2000/svg" xmlns:xlink="http://www.w3.org/1999/xlink" x="0px" y="0px"
	 width="58.582px" height="36.484px" viewBox="0 0 58.582 36.484" enable-background="new 0 0 58.582 36.484" xml:space="preserve">
<path fill="#FF6D00" d="M57.836,34.992h-2.855c-1.721-4.1-1.721-9.052,0-13.151h2.855c0.412,0,0.745-0.334,0.745-0.746
	s-0.333-0.746-0.745-0.746h-4.756c1.522-3.28,1.391-7.087-0.4-10.275c1.654-3.05,1.574-6.728-0.244-9.715
	C52.3,0.136,52.059,0,51.798,0h-5.132c-0.412,0-0.746,0.334-0.746,0.746c0,0.412,0.334,0.746,0.746,0.746h4.701
	c1.338,2.463,1.338,5.411,0,7.874h-16.53c0.799-1.808,1.033-3.819,0.655-5.783c-0.078-0.405-0.469-0.67-0.873-0.591
	c-0.404,0.078-0.669,0.468-0.592,0.874c0.363,1.885,0.061,3.822-0.85,5.501h-2.275c1.113-2.512,1.113-5.362,0-7.874h2.272
	c0.095,0.172,0.184,0.346,0.264,0.523c0.125,0.275,0.396,0.438,0.681,0.438c0.102,0,0.207-0.021,0.307-0.067
	c0.345-0.157,0.51-0.542,0.402-0.895h9.449c0.412,0,0.746-0.334,0.746-0.746C45.024,0.334,44.69,0,44.278,0H8.226
	C7.815,0,7.48,0.334,7.48,0.746c0,0.412,0.334,0.746,0.746,0.746h2.418c1.338,2.463,1.338,5.411,0,7.874H0.745
	C0.333,9.366,0,9.7,0,10.111c0,0.413,0.333,0.746,0.745,0.746h2.912c1.64,2.963,1.64,6.529,0,9.491H0.745
	C0.333,20.349,0,20.683,0,21.095s0.333,0.746,0.745,0.746h4.934c-1.778,4.51-1.625,9.854,0.463,14.22
	c0.124,0.259,0.386,0.424,0.673,0.424h51.021c0.412,0,0.745-0.334,0.745-0.746C58.582,35.327,58.249,34.992,57.836,34.992z
	 M52.677,24.169h-2.59c-0.412,0-0.745,0.334-0.745,0.746s0.333,0.746,0.745,0.746h2.313c-0.101,0.699-0.164,1.407-0.187,2.115
	h-8.335c-0.411,0-0.745,0.334-0.745,0.746s0.334,0.746,0.745,0.746h8.343c0.03,0.71,0.101,1.417,0.21,2.116H47.7
	c-0.411,0-0.745,0.334-0.745,0.746c0,0.411,0.334,0.745,0.745,0.745h5.027c0.174,0.721,0.391,1.429,0.649,2.116H35.721
	c-0.287-0.684-0.525-1.392-0.717-2.116h10.389c0.411,0,0.745-0.334,0.745-0.745c0-0.412-0.334-0.746-0.745-0.746H34.682
	c-0.119-0.698-0.196-1.406-0.23-2.116h6.484c0.412,0,0.746-0.334,0.746-0.746s-0.334-0.746-0.746-0.746h-6.492
	c0.025-0.709,0.092-1.416,0.203-2.115h13.292c0.412,0,0.746-0.334,0.746-0.746s-0.334-0.746-0.746-0.746H34.952
	c0.198-0.798,0.455-1.577,0.77-2.328h17.655C53.092,22.596,52.859,23.375,52.677,24.169z M33.174,34.992
	c-1.125-2.688-1.528-5.816-1.135-8.868c0.053-0.408-0.235-0.783-0.645-0.836c-0.408-0.052-0.783,0.236-0.835,0.645
	c-0.399,3.094-0.038,6.268,1.011,9.06h-3.012c-1.72-4.1-1.72-9.052,0-13.151h3.016c-0.225,0.596-0.422,1.208-0.584,1.836
	c-0.102,0.399,0.139,0.806,0.537,0.908c0.063,0.016,0.125,0.023,0.188,0.023c0.332,0,0.635-0.224,0.722-0.561
	c0.195-0.763,0.442-1.502,0.737-2.207h0.943c-1.565,4.148-1.565,9.004,0,13.152L33.174,34.992L33.174,34.992z M24.588,10.858h0.876
	c1.638,2.962,1.638,6.528,0,9.491h-0.876C25.989,17.333,25.989,13.874,24.588,10.858z M28.731,1.492h0.512
	c1.337,2.462,1.337,5.411,0,7.874h-0.512C29.844,6.854,29.844,4.004,28.731,1.492z M27.135,10.858h2.945
	c1.638,2.962,1.638,6.528,0,9.491h-2.945C28.536,17.333,28.536,13.874,27.135,10.858z M51.409,10.858
	c1.639,2.962,1.639,6.528,0,9.491H31.75c1.4-3.017,1.4-6.475,0-9.491h1.857h0.001H51.409z M12.907,7.54h9.725
	c0.412,0,0.746-0.334,0.746-0.746c0-0.412-0.334-0.746-0.746-0.746h-9.51c0.031-0.483,0.024-0.969-0.017-1.453h5.707
	c0.412,0,0.746-0.334,0.746-0.746c0-0.412-0.334-0.746-0.746-0.746h-5.953c-0.136-0.548-0.32-1.087-0.552-1.611h14.763
	c0.282,0.519,0.504,1.059,0.667,1.611h-6.378c-0.412,0-0.746,0.334-0.746,0.746c0,0.412,0.334,0.746,0.746,0.746h6.673
	c0.049,0.483,0.055,0.969,0.018,1.453h-2.235c-0.412,0-0.745,0.334-0.745,0.746c0,0.412,0.333,0.746,0.745,0.746h1.982
	c-0.166,0.628-0.409,1.241-0.728,1.827H12.306C12.569,8.773,12.77,8.161,12.907,7.54z M22.917,10.858
	c0.219,0.395,0.409,0.801,0.569,1.214H5.81c-0.136-0.411-0.296-0.816-0.48-1.214H22.917z M5.862,18.976h2.84
	c0.413,0,0.747-0.333,0.747-0.746c0-0.412-0.334-0.746-0.747-0.746h-2.48c0.068-0.402,0.113-0.807,0.138-1.214h11.814
	c0.412,0,0.746-0.334,0.746-0.745c0-0.413-0.334-0.747-0.746-0.747H6.35c-0.03-0.406-0.083-0.812-0.157-1.213h17.738
	c0.086,0.401,0.146,0.807,0.18,1.213h-3.47c-0.412,0-0.746,0.334-0.746,0.747c0,0.411,0.334,0.745,0.746,0.745h3.483
	c-0.027,0.407-0.082,0.813-0.161,1.214H11.41c-0.413,0-0.746,0.334-0.746,0.746c0,0.413,0.333,0.746,0.746,0.746h12.135
	c-0.172,0.469-0.381,0.928-0.628,1.373H5.33C5.538,19.9,5.716,19.441,5.862,18.976z M7.293,21.841h0.721
	c-0.476,1.263-0.813,2.603-1,4c-0.054,0.408,0.232,0.783,0.64,0.838c0.033,0.005,0.067,0.007,0.1,0.007
	c0.369,0,0.688-0.272,0.738-0.647c0.199-1.48,0.578-2.891,1.126-4.197h17.335c-1.564,4.148-1.564,9.004,0,13.152H9.619
	c-0.782-1.868-1.223-3.973-1.277-6.118c-0.01-0.411-0.352-0.734-0.764-0.727c-0.412,0.01-0.737,0.353-0.727,0.765
	c0.053,2.112,0.454,4.191,1.165,6.079H7.293C5.487,30.894,5.487,25.939,7.293,21.841z"/>
</svg>
